# xmcd
# 
# Track frame offsets:
#     150
#     27036
#     48529
#     66113
#     81886
#     104174
#     125042
#     150820
#     172193
#     192864
# 
# Disc length: 2874
# 
# Revision: 5
# Processed by: cddbd v1.5.2PL0 Copyright (c) Steve Scherf et al.
# Submitted via: BonkEnc v1.0.8
# 
DISCID=840b380a
DTITLE=Albert King - The Lost Session
DYEAR=1986
DGENRE=Blues
TTITLE0=She Won't Gimme No Lovin'
TTITLE1=Cold In Hand
TTITLE2=Stop Lying
TTITLE3=All The Way Down
TTITLE4=Tell Me What True Love Is
TTITLE5=Down The Road I Go
TTITLE6=Money Lovin' Women
TTITLE7=Sun Gone Down (Take 1)
TTITLE8=Brand New Razor
TTITLE9=Sun Gone Down (Take 2)
EXTD=Recorded: August 28, 1971 (Wolfman Jack Studios, Los Angeles]\nFirst Release: 1986\n\n© 2002\nLabel: Stax Records (Fantasy Inc.]\nSCD24 8534-2\n24 BIT Remastered
EXTT0=
EXTT1=
EXTT2=
EXTT3=
EXTT4=
EXTT5=
EXTT6=
EXTT7=
EXTT8=
EXTT9=
PLAYORDER=
